<svg xmlns="http://www.w3.org/2000/svg" width="512" height="512" viewBox="0 0 4 5">
	<defs>
		<filter id="fmask">
			<!-- <feTurbulence type="fractalNoise" baseFrequency="255" numOctaves="1" result="fbm"/> -->
			<!-- <feDisplacementMap in="SourceGraphic" in2="fbm" scale=".2" xChannelSelector="R" yChannelSelector="G"/> -->
			<feGaussianBlur in="SourceGraphic" stdDeviation=".01"/>
		</filter>
		<symbol id="_bg"><path d="M0,0v1h1v-1z"/></symbol>
		<symbol id="_twitter" width="1" height="1" viewBox="0 0 320 320" preserveAspectRatio="xMinYMin meet">
			<path d="M160,160m97.95,-50.71c.15,2.17.15,4.34.15,6.53,0,66.73-50.8,143.69-143.69,143.69-27.44.04-54.31-7.82-77.41-22.64,3.99.48,8,.72,12.02.73,22.74.02,44.83-7.61,62.72-21.66-21.61-.41-40.56-14.5-47.18-35.07,7.57,1.46,15.37,1.16,22.8-.87-23.56-4.76-40.51-25.46-40.51-49.5,7.02,3.91,14.88,6.08,22.92,6.32-22.19-14.83-29.03-44.35-15.63-67.43,25.64,31.55,63.47,50.73,104.08,52.76-4.07-17.54,1.49-35.92,14.61-48.25,20.34-19.12,52.33-18.14,71.45,2.19,11.31-2.23,22.15-6.38,32.07-12.26-3.77,11.69-11.66,21.62-22.2,27.93,10.01-1.18,19.79-3.86,29-7.95-6.78,10.16-15.32,19.01-25.2,26.16z"/>
		</symbol>
		<symbol id="_github" viewBox="0 0 128 128" preserveAspectRatio="xMinYMin meet">
			<path d="M0,0m56.7937,84.9688c-12.375-1.5-21.0937-10.4063-21.0937-21.9375,0-4.6875,1.6875-9.75,4.5-13.125-1.2188-3.0938-1.0313-9.6563.375-12.375,3.75-.4688,8.8125,1.5,11.8125,4.2187,3.5625-1.125,7.3125-1.6875,11.9062-1.6875,4.5938,0,8.3438.5625,11.7188,1.5938,2.9062-2.625,8.0625-4.5938,11.8125-4.125,1.3125,2.5312,1.5,9.0937.2812,12.2812,3,3.5625,4.5938,8.3438,4.5938,13.2188,0,11.5312-8.7188,20.25-21.2813,21.8437,3.1875,2.0625,5.3438,6.5625,5.3438,11.7188v9.7502c0,2.812,2.3437,4.406,5.1562,3.281,16.9688-6.469,30.2813-23.4375,30.2813-44.4375,0-26.5312-21.5625-48.1875-48.0938-48.1875-26.5312,0-47.9062,21.6562-47.9062,48.1875,0,20.8125,13.2187,38.0625,31.0312,44.5315,2.5313.937,4.9688-.75,4.9688-3.281v-7.5005c-1.3125.5625-3,.9375-4.5.9375-6.1875,0-9.8438-3.375-12.4688-9.6562-1.0312-2.5313-2.1562-4.0313-4.3125-4.3125-1.125-.0938-1.5-.5625-1.5-1.125,0-1.125,1.875-1.9688,3.75-1.9688,2.7188,0,5.0625,1.6875,7.5,5.1563,1.875,2.7187,3.8438,3.9375,6.1875,3.9375,2.3438,0,3.8438-.8438,6-3,1.5938-1.5938,2.8125-3,3.9375-3.9375z"/>
		</symbol>
		<symbol id="_npm" viewBox="0 0 16 16" preserveAspectRatio="xMinYMin meet">
			<path d="M0,0m3,3v10h5v-8h3v8h2v-10z"/>
		</symbol>
		<linearGradient id="_misskeyio_col" x1="512" y1="0" x2="0" y2="512" gradientUnits="userSpaceOnUse">
			<stop offset="32%" stop-color="#96d04a"/><stop offset="32%" stop-color="#fff"/>
		</linearGradient>
		<symbol id="_misskeyio" viewBox="0 0 512 512" preserveAspectRatio="xMinYMin meet" stroke-linecap="round" fill="none">
			<path d="M354,90.5v.00001" stroke-width="100.5"/>
			<path d="M284.5,160l-108,108a95,95,0,1,0,135,0" stroke-width="82"/>
		</symbol>
		<symbol id="_qiita" viewBox="-50 -350 400 400" preserveAspectRatio="xMinYMin meet">
			<path transform="scale(.1,-.1)" d="M1245,2984c-576-106-1030-511-1189-1058-47-163-59-268-53-474,6-198,19-280,72-438,148-440,509-798,951-943,176-57,240-66,474-66,173,0,232,4,300,19,271,59,499,174,709,357l84,74-37,7c-86,18-236,122-296,205l-37,52-24-25c-36-38-146-108-214-137-227-95-605-124-835-64-181,47-305,119-423,247-246,266-289,743-101,1148l34,75-36,140-36,139,19,27c27,35,53,36,171,7,55-15,107-26,115-26,7,0,51,25,97,55,231,152,542,189,796,94l53-20,114,71c63,38,123,70,135,70,11,0,30-8,43-19,22-18,24-27,30-185,6-139,10-170,26-189,170-218,252-404,284-652,15-118,6-249-26-358-37-130-35-151,29-231,47-58,67-65,172-59,70,4,103,2,140-11,26-9,49-14,51-12,13,13,86,196,107,270,47,163,59,268,53,474-6,198-19,280-72,438-146,435-504,793-939,939-166,56-237,67-456,71-152,2-226-1-285-12zm95-719c-183-41-348-172-433-344-26-51-47-100-47-108,0-13-10-14-62-9-35,4-74,10-87,13-17,4-22,2-19-8,3-9,29-16,78-21,40-4,75-10,78-12,2-3,2-16-2-29-5-22-13-25-76-31-91-9-91-22,0-18,69,4,70,3,70-21,0-30-11-40-70-63-49-19-67-31-58-39,3-3,31,5,62,19,63,28,61,30,71-52,20-175,136-296,325-343,78-20,330-17,450,5,250,44,391,129,459,276,21,45,26,73,29,162l4,108,27-6c14-3,41-10,58-14,18-5,35-5,38,0,6,10-11,17-69,25-51,8-76,26-76,55,0,19,26,30,75,30,17,0,37,5,45,11,11,7-6,8-57,4-72-7-73-7-83,20-5,14-10,28-10,30,0,3,34,14,75,26,43,13,75,28,75,35,0,9-19,6-72-12-39-13-77-24-84-24-7,0-26,25-43,55-64,114-204,223-341,266-86,27-242,34-330,14z"/>
		</symbol>
	</defs>

	<view id="mask" viewBox="-.02 -1.04 1.04 1.04"/>
	<path d="M0,-.52q0,.5.5.5t.5-.5-.5-.5-.5.5z" filter="url(#fmask)"/>
	<a href="#twitter">
		<view id="twitter" viewBox="0 0 1 1"/>
		<use href="#_bg" fill="#1d9bf0"/>
		<use href="#_twitter" fill="#fff" x="0" y="0" width="1"/>
	</a>
	<a href="#twitter_">
		<view id="twitter_" viewBox="1 0 1 1"/>
		<use href="#_twitter" fill="#1d9bf0" x="1" y="0" width="1"/>
	</a>
	<a href="#twitter_l">
		<view id="twitter_l" viewBox="2 0 1 1"/>
		<use href="#_twitter" fill="#000" x="2" y="0" width="1"/>
	</a>
	<a href="#twitter_d">
		<view id="twitter_d" viewBox="3 0 1 1"/>
		<use href="#_twitter" fill="#fff" x="3" y="0" width="1"/>
	</a>

	<a href="#github">
		<view id="github" viewBox="0 1 1 1"/>
		<use href="#_bg" fill="#000" y="1"/>
		<use href="#_github" fill="#fff" x="0" y="1" width="1"/>
	</a>
	<a href="#github_">
		<view id="github_" viewBox="1 1 1 1"/>
		<use href="#_github" fill="#888" x="1" y="1" width="1"/>
	</a>
	<a href="#github_l">
		<view id="github_l" viewBox="2 1 1 1"/>
		<use href="#_github" fill="#000" x="2" y="1" width="1"/>
	</a>
	<a href="#github_d">
		<view id="github_d" viewBox="3 1 1 1"/>
		<use href="#_github" fill="#fff" x="3" y="1" width="1"/>
	</a>

	<a href="#npm">
		<view id="npm" viewBox="0 2 1 1"/>
		<use href="#_bg" fill="#c12127" y="2"/>
		<use href="#_npm" fill="#fff" x="0" y="2" width="1"/>
	</a>
	<a href="#npm_">
		<view id="npm_" viewBox="1 2 1 1"/>
		<use href="#_npm" fill="#c12127" x="1" y="2" width="1"/>
	</a>
	<a href="#npm_l">
		<view id="npm_l" viewBox="2 2 1 1"/>
		<use href="#_npm" fill="#000" x="2" y="2" width="1"/>
	</a>
	<a href="#npm_d">
		<view id="npm_d" viewBox="3 2 1 1"/>
		<use href="#_npm" fill="#fff" x="3" y="2" width="1"/>
	</a>

	<a href="#misskeyio">
		<view id="misskeyio" viewBox="0 3 1 1"/>
		<use href="#_bg" fill="#1b1e1f" y="3"/>
		<use href="#_misskeyio" stroke="url(#_misskeyio_col)" x="0" y="3" width="1"/>
	</a>
	<a href="#misskeyio_">
		<view id="misskeyio_" viewBox="1 3 1 1"/>
		<use href="#_misskeyio" stroke="#96d04a" x="1" y="3" width="1"/>
	</a>
	<a href="#misskeyio_l">
		<view id="misskeyio_l" viewBox="2 3 1 1"/>
		<use href="#_misskeyio" stroke="#000" x="2" y="3" width="1"/>
	</a>
	<a href="#misskeyio_d">
		<view id="misskeyio_d" viewBox="3 3 1 1"/>
		<use href="#_misskeyio" stroke="#fff" x="3" y="3" width="1"/>
	</a>

	<a href="#qiita">
		<view id="qiita" viewBox="0 4 1 1"/>
		<use href="#_bg" fill="#fff" y="4"/>
		<use href="#_qiita" fill="#55c500" x="0" y="4" width="1"/>
	</a>
	<a href="#qiita_">
		<view id="qiita_" viewBox="1 4 1 1"/>
		<use href="#_qiita" fill="#55c500" x="1" y="4" width="1"/>
	</a>
	<a href="#qiita_l">
		<view id="qiita_l" viewBox="2 4 1 1"/>
		<use href="#_qiita" fill="#000" x="2" y="4" width="1"/>
	</a>
	<a href="#qiita_d">
		<view id="qiita_d" viewBox="3 4 1 1"/>
		<use href="#_qiita" fill="#fff" x="3" y="4" width="1"/>
	</a>
</svg>
